<svg width="1225" height="1225" viewBox="0 0 1225 1225" fill="none" xmlns="http://www.w3.org/2000/svg">
<path d="M980.44 256.895L980.16 317.987L980.144 321.474L977.684 323.945L671.101 631.928L671.097 631.932L639.852 663.293C567.903 735.532 503.089 800.782 454.422 849.939C426.611 878.03 404.079 900.859 388.504 916.732C380.714 924.671 374.678 930.856 370.595 935.084C370.261 935.431 369.942 935.765 369.635 936.083C370.332 936.682 371.112 937.333 371.976 938.036C376.955 942.084 384.033 947.273 392.173 952.868C408.467 964.065 428.4 976.47 443.116 984.1C504.672 1015.7 549.858 1026.58 618.837 1026.58H618.883C669.802 1026.86 691.573 1023.36 739.161 1007.41L739.173 1007.4L739.186 1007.4C856.445 968.494 949.503 872.8 988.504 751.135V751.134C1003.34 704.696 1006.88 681.197 1006.88 626.212C1006.88 574.326 1003.07 548.286 988.491 501.807L988.484 501.785L988.477 501.763L987.024 497.041L963.939 520.126C948.293 535.773 940.651 543.585 937.003 548.417C935.358 550.598 935.094 551.461 935.063 551.582C935.063 551.594 935.065 551.611 935.067 551.632C935.081 551.794 935.131 552.125 935.319 552.856C937.96 562.037 940.218 580.608 941.602 598.768C942.962 616.622 943.585 635.525 942.662 646.704L942.569 647.761C937.99 698.907 924.54 745.689 903.218 785.74L903.215 785.745L902.373 787.314C830.84 919.895 687.499 986.715 544.074 954.355L542.392 953.97C525.328 950.054 494.394 939.207 481.556 932.799L480.378 932.198C478.834 931.389 476.571 929.711 475.509 926.593C474.531 923.72 475.107 921.134 475.635 919.59C476.615 916.729 478.762 913.703 481.238 910.6C486.538 903.957 496.794 892.872 515.118 874.041C551.926 836.215 622.403 766.019 754.084 635.039L754.086 635.037L1033.5 357.289V244.805C1033.5 199.251 1033.29 170.369 1032.77 152.895C1032.56 145.781 1032.29 140.721 1032 137.26C1013.2 137.186 957.075 136.956 892.602 136.725H892.572C853.371 136.445 817.609 136.446 791.592 136.621C781.917 136.686 773.605 136.775 766.973 136.882C772.581 142.62 779.822 149.761 787.808 157.389L787.814 157.395L787.82 157.4L819.263 187.543H980.44V256.895Z" stroke="#FFC800" stroke-width="17"/>
<path d="M316.178 1087.11C352.461 1087.11 385.371 1087.04 409.203 1086.9C416.66 1086.86 423.219 1086.81 428.709 1086.75C422.916 1080.8 415.608 1073.39 407.691 1065.47L375.773 1033.56L316.329 1034.61H316.311L316.292 1034.61L253.237 1035.46L244.802 1035.57L244.626 1027.13L242.944 946.424L242.869 942.823L245.403 940.265L333.119 851.709L333.121 851.707C427.24 756.748 568.725 611.34 695.384 480.198V480.197C738.553 435.346 793.215 379.003 816.771 354.886L816.789 354.867L816.807 354.85C828.642 342.875 839.204 331.687 846.744 323.351C849.853 319.914 852.41 317.003 854.316 314.745C853.99 314.432 853.643 314.103 853.274 313.76C850.068 310.768 845.639 306.96 840.469 302.754C830.13 294.345 817.182 284.637 805.826 277.112L805.797 277.093C760.959 247.109 710.954 225.701 661.919 215.29C649.541 212.769 624.629 210.413 599.955 209.085C575.814 207.786 553.432 207.56 543.95 208.803L543.073 208.928C509.227 214.199 483.919 219.99 459.532 227.934C317.409 275.407 216.765 394.966 193.988 543.429L193.986 543.438L193.985 543.445L193.697 545.36C187.782 585.992 190.335 652.58 199.184 690.119C205.815 717.967 216.389 750.342 223.738 765.609L233.662 755.839V755.838C243.389 746.111 256.378 732.284 262.329 725.251L262.334 725.245L270.434 715.691L264.793 693.361C260.742 678.285 256.204 652.426 254.482 635.54C243.226 532.213 290.47 420.994 373.843 352.852V352.851C405.926 326.548 456.89 300.802 497.47 289.578L497.507 289.568C510.485 286.042 519.095 283.925 530.433 282.765C541.552 281.627 555.163 281.424 578.203 281.424C617.498 281.424 634.569 282.529 652.938 286.677L652.987 286.689L653.038 286.7C665.856 289.759 684.51 295.85 701.702 302.239C718.72 308.564 735.258 315.531 743.454 320.48L743.539 320.531L743.624 320.585L752.872 326.471L761.754 332.122L754.356 339.613L666.642 428.45L666.621 428.471L657.126 438.037C614.271 481.284 550.078 546.885 499.855 598.331L477.796 620.938C422.276 678.14 334.895 767.761 283.893 820.445L283.88 820.459L283.866 820.472L192.966 913.558V1087.11H316.178Z" stroke="#FFC800" stroke-width="17"/>
</svg>
