<svg width="128" height="128" viewBox="0 0 128 128" fill="none" xmlns="http://www.w3.org/2000/svg">
  <rect width="128" height="128" fill="#000000" />
  <path
    d="M40 47.5L48.5 39H92C97.5 39 100.5 45.5 97 49.75L88 61H54C49.5 61 47.25 55.5 50.5 52.25L55.25 47.5H40Z"
    fill="#F6F4EC"
  />
  <path
    d="M36 85.5L67.5 54H72C78 54 81 61.25 76.75 65.5L56.5 86H91C96.5 86 99.5 92.5 96 96.75L87.5 105H39.5C34 105 31 98.5 34.5 94.25L36 85.5Z"
    fill="#F6F4EC"
  />
  <path d="M75.5 63L86.5 63C89.5 63 91 66.5 88.75 68.75L79 79C77.5 80.5 75 79.5 75 77.25L75.5 63Z" fill="#FFE500" />
</svg>
